Coordinates
version=1
nRows=4
nColumns=63
inDegrees=yes

Units are S.I. units (second, meters, Newtons, ...)
If the header above contains a line with 'inDegrees', this indicates whether rotational values are in degrees (yes) or radians (no).

endheader
time	pelvis_tilt	pelvis_list	pelvis_rotation	pelvis_tx	pelvis_ty	pelvis_tz	hip_flexion_r	hip_adduction_r	hip_rotation_r	knee_angle_r	knee_angle_r_beta	ankle_angle_r	subtalar_angle_r	mtp_angle_r	hip_flexion_l	hip_adduction_l	hip_rotation_l	knee_angle_l	knee_angle_l_beta	ankle_angle_l	subtalar_angle_l	mtp_angle_l	L5_S1_Flex_Ext	L5_S1_Lat_Bending	L5_S1_axial_rotation	L4_L5_Flex_Ext	L4_L5_Lat_Bending	L4_L5_axial_rotation	L3_L4_Flex_Ext	L3_L4_Lat_Bending	L3_L4_axial_rotation	L2_L3_Flex_Ext	L2_L3_Lat_Bending	L2_L3_axial_rotation	L1_L2_Flex_Ext	L1_L2_Lat_Bending	L1_L2_axial_rotation	L1_T12_Flex_Ext	L1_T12_Lat_Bending	L1_T12_axial_rotation	Abs_r3	Abs_r2	Abs_r1	Abs_t1	Abs_t2	neck_flexion	neck_bending	neck_rotation	arm_flex_r	arm_add_r	arm_rot_r	elbow_flex_r	pro_sup_r	wrist_flex_r	wrist_dev_r	arm_flex_l	arm_add_l	arm_rot_l	elbow_flex_l	pro_sup_l	wrist_flex_l	wrist_dev_l
      0.00000000	      0.38207946	     -4.47649446	     91.52668740	      0.03368405	      0.81505719	      0.75143977	     11.16518283	     -1.80080179	      1.50237049	     14.65356258	      0.25575291	     33.31488954	      2.29000227	      0.00000000	      8.74836917	      1.24449821	     -7.87572137	      8.99130490	      0.15692787	     33.91877407	      7.72095769	      0.00000000	      0.13194366	     -0.13538757	      1.94593211	      0.24503257	     -0.18006546	      2.06755287	      0.21677024	     -0.32918133	      2.06755287	      0.15079841	     -0.32918133	      1.70269060	      0.12252288	     -0.27608232	      1.58106984	      0.07539261	     -0.20971534	      1.45944909	      0.94246038	     -1.53153122	     10.82269064	      0.00000000	      0.00000000	     27.56455187	     -1.93476394	     -6.95025986	      6.12147207	     -9.64418537	     31.99605270	     54.72640136	     84.68605365	     16.98082148	     -2.02451932	     22.59065634	    -10.59779885	     66.68311371	     49.48011509	     54.09641765	      8.48349859	     -6.90325170
      0.01886792	      0.25071113	     -4.43464575	     89.96636466	      0.03506678	      0.81459499	      0.75077508	     11.19689136	     -1.84665321	      1.66536762	     14.22914892	      0.24834550	     34.49127072	      4.77302487	      0.00000000	      8.26128310	      1.28741005	     -8.94156450	      8.45375860	      0.14754592	     33.89527760	      7.16143831	      0.00000000	      0.13710295	     -0.11631860	      2.20444865	      0.25461389	     -0.15470373	      2.34222670	      0.22524644	     -0.28281704	      2.34222670	      0.15669497	     -0.28281704	      1.92889257	      0.12731380	     -0.23719688	      1.79111453	      0.07834063	     -0.18017751	      1.65333649	      0.97931269	     -1.31581923	     12.26048208	      0.00000000	      0.00000000	     27.59666658	     -2.24223816	     -5.86919351	      5.72675383	     -9.68617226	     30.99487063	     55.51298215	     81.77109394	     16.00863606	     -1.30329005	     22.34885661	    -10.00127359	     65.64837384	     48.85789891	     50.17627599	      8.06679816	     -8.59052908
      0.03773585	      0.08071345	     -4.33962618	     89.30378240	      0.03580612	      0.81422642	      0.75029026	     11.02585159	     -2.19123668	      0.03121247	     13.87949803	      0.24224294	     35.42529006	      8.32693378	      0.00000000	      7.97777419	      1.42853362	     -9.20692164	      8.28953643	      0.14467970	     33.95701735	      6.75589701	      0.00000000	      0.13178215	     -0.12426648	      2.35163709	      0.24473263	     -0.16527442	      2.49861441	      0.21650489	     -0.30214153	      2.49861441	      0.15061382	     -0.30214153	      2.05768246	      0.12237290	     -0.25340422	      1.91070514	      0.07530032	     -0.19248878	      1.76372782	      0.94130670	     -1.40572733	     13.07910001	      0.00000000	      0.00000000	     27.60582354	     -2.49949353	     -5.75194065	      5.49761999	     -9.70538391	     30.68717284	     56.08487686	     78.16015793	     14.43385695	     -0.56975247	     23.30714721	     -9.88111420	     68.11849147	     48.61190052	     44.59517600	      7.04294871	    -10.66124314
      0.05660377	     -0.04691900	     -4.23429517	     88.49386385	      0.03664403	      0.81395075	      0.74959916	     10.81776314	     -2.23297285	      0.60126274	     13.55057033	      0.23650207	     35.56958224	      8.92974109	      0.00000000	      7.59848062	      1.57138002	     -9.11495854	      7.94810033	      0.13872052	     33.86303415	      5.63586248	      0.00000000	      0.12819763	     -0.12405121	      2.46602769	      0.23807582	     -0.16498811	      2.62015442	      0.21061589	     -0.30161810	      2.62015442	      0.14651707	     -0.30161810	      2.15777423	      0.11904432	     -0.25296522	      2.00364750	      0.07325213	     -0.19215532	      1.84952077	      0.91570285	     -1.40329206	     13.71530622	      0.00000000	      0.00000000	     27.62410388	     -2.47200254	     -5.04812914	      5.59673693	     -9.78887922	     30.90992211	     56.36076149	     77.37546857	     13.59799899	     -0.54101303	     23.36423860	     -9.84375896	     68.20283425	     48.49866625	     43.59339756	      7.10353657	    -11.47575169
